<svg xmlns="http://www.w3.org/2000/svg" width="700" height="80" viewBox="0 0 700 80">
  <g id="Group_29773" data-name="Group 29773" transform="translate(-609 -1187)">
    <g id="Group_29603" data-name="Group 29603" transform="translate(73 645)">
      <text id="Search" transform="translate(570 614)" fill="#7df381" font-size="22" font-family="ProximaNova-Regular, Proxima Nova"><tspan x="-33" y="0">Search</tspan></text>
      <g id="Group_29595" data-name="Group 29595" transform="translate(1021.157 1383)">
        <path id="Path_39" data-name="Path 39" d="M309.794,103.17l-5.18-8.405a10.241,10.241,0,0,0,1.12-12.235,9.542,9.542,0,0,0-8.136-4.613,9.366,9.366,0,0,0-4.277,1.043,9.03,9.03,0,0,0-.918.526,9.928,9.928,0,0,0-4.053,5.548,10.257,10.257,0,0,0-.239,4.683,9.994,9.994,0,0,0,1.351,3.57,9.775,9.775,0,0,0,2.209,2.511,9.482,9.482,0,0,0,5.934,2.1,9.262,9.262,0,0,0,3.042-.52l5.177,8.417a2.335,2.335,0,0,0,1.985,1.121,2.277,2.277,0,0,0,1.269-.386,2.493,2.493,0,0,0,.716-3.361Zm-10.577-8.546a6.543,6.543,0,0,1-7.263-2.991,6.935,6.935,0,0,1-.791-1.839,7.117,7.117,0,0,1,.4-4.868A6.806,6.806,0,0,1,294,82.074a6.486,6.486,0,0,1,5.24-.873,6.629,6.629,0,0,1,3.993,2.99,7.1,7.1,0,0,1-1.082,8.793,7.7,7.7,0,0,1-.955.765,6.076,6.076,0,0,1-1.082.572,6.3,6.3,0,0,1-.9.3Z" transform="translate(-743.317 -914.917)" fill="#7df381"/>
        <path id="Path_40" data-name="Path 40" d="M108.877,368.14h-16.6a.744.744,0,0,0-.746.746v5.4a.744.744,0,0,0,.746.746h16.6a.744.744,0,0,0,.746-.746v-5.4A.744.744,0,0,0,108.877,368.14Z" transform="translate(-560.687 -1184.038)" fill="#7df381"/>
        <path id="Path_41" data-name="Path 41" d="M92.39,98.278h11.519a10.98,10.98,0,0,1,4.055-6.9H92.39a.744.744,0,0,0-.746.746v5.412a.739.739,0,0,0,.746.746Z" transform="translate(-560.793 -927.44)" fill="#7df381"/>
        <path id="Path_42" data-name="Path 42" d="M92.389,236.668h14.539a11.111,11.111,0,0,1-1.421-1.78,10.9,10.9,0,0,1-1.563-4,10.661,10.661,0,0,1-.144-1.129H92.389a.739.739,0,0,0-.746.746v5.412a.744.744,0,0,0,.746.746Z" transform="translate(-560.792 -1055.746)" fill="#7df381"/>
      </g>
    </g>
    <g id="Group_29605" data-name="Group 29605" transform="translate(8 624)">
      <text id="Trade" transform="translate(1055 638)" fill="#77e67a" font-size="22" font-family="ProximaNova-Regular, Proxima Nova"><tspan x="-27" y="0">Trade</tspan></text>
      <g id="Group_29601" data-name="Group 29601" transform="translate(144.012 1353)">
        <path id="Path_34" data-name="Path 34" d="M348.713,88.591H334.037a1.4,1.4,0,0,1-1.4-1.4V72.519a1.4,1.4,0,0,1,1.4-1.4h14.676a1.4,1.4,0,0,1,1.4,1.4V87.2A1.338,1.338,0,0,1,348.713,88.591Z" transform="translate(576.879 -861.124)" fill="#77e67a"/>
        <path id="Path_35" data-name="Path 35" d="M175.68,103.472h-6.063l2.6-2.6a.586.586,0,0,0,0-.77l-1.4-1.4a.586.586,0,0,0-.77,0l-4.042,4.09-1.78,1.732a.586.586,0,0,0,0,.77l5.87,5.87a.586.586,0,0,0,.77,0l1.4-1.4a.586.586,0,0,0,0-.77l-2.6-2.6h6.063a.5.5,0,0,0,.481-.529V104c-.048-.337-.241-.53-.53-.53Z" transform="translate(730.954 -886.207)" fill="#77e67a"/>
        <path id="Path_36" data-name="Path 36" d="M181.035,294.358a8.758,8.758,0,1,1-8.758-8.758,8.757,8.757,0,0,1,8.758,8.758" transform="translate(731.469 -1057.115)" fill="#77e67a"/>
        <path id="Path_37" data-name="Path 37" d="M395.84,317.952H401.9l-2.6-2.6a.586.586,0,0,1,0-.77l1.4-1.4a.586.586,0,0,1,.77,0l4.042,4.09,1.78,1.78a.586.586,0,0,1,0,.77l-1.78,1.78-4.042,4.09a.586.586,0,0,1-.77,0l-1.4-1.4a.586.586,0,0,1,0-.77l2.6-2.6H395.84a.5.5,0,0,1-.481-.529V318.53a.511.511,0,0,1,.481-.577Z" transform="translate(519.551 -1082.201)" fill="#77e67a"/>
      </g>
    </g>
    <g id="Group_29604" data-name="Group 29604" transform="translate(36 713)">
      <text id="Register" transform="translate(820 549)" fill="#7df381" font-size="22" font-family="ProximaNova-Regular, Proxima Nova"><tspan x="-39" y="0">Register</tspan></text>
      <g id="noun-pen-3656372" transform="translate(732 473.293)">
        <path id="Path_32" data-name="Path 32" d="M70,111.061h36v3.608H70Zm18-7.216h18v3.608H88Zm7.2-7.216H106v3.608H95.2Zm-1.8-7.216L88,84,70,102.041v5.412h5.4Z" transform="translate(0 -77.962)" fill="#7df381"/>
        <path id="Path_33" data-name="Path 33" d="M378.7,4.255,382.248.707l5.322,5.322-3.548,3.548Z" transform="translate(-288.826)" fill="#7df381"/>
      </g>
    </g>
    <g id="Group_29606" data-name="Group 29606" transform="translate(-56 711)">
      <text id="Manage" transform="translate(1325 551)" fill="#7df381" font-size="22" font-family="ProximaNova-Regular, Proxima Nova"><tspan x="-39" y="0">Manage</tspan></text>
      <path id="Path_26785" data-name="Path 26785" d="M185.186,122.23v7.3a4.768,4.768,0,0,1-4.769,4.768h-7.3a4.777,4.777,0,0,1-4.769-4.768v-7.3a4.768,4.768,0,0,1,4.769-4.768h7.3a4.768,4.768,0,0,1,4.769,4.768ZM180.417,98.3h-7.3a4.777,4.777,0,0,0-4.769,4.768v7.308a4.777,4.777,0,0,0,4.769,4.768h7.3a4.768,4.768,0,0,0,4.769-4.768v-7.308a4.768,4.768,0,0,0-4.769-4.768Zm19.162,19.165h-7.3a4.768,4.768,0,0,0-4.769,4.768v7.3a4.777,4.777,0,0,0,4.769,4.768h7.3a4.768,4.768,0,0,0,4.769-4.768v-7.3a4.768,4.768,0,0,0-4.769-4.768Zm-10.872-13.254,1.214-2.219c.494-.122,1.613-.234,1.951.122l1.829-1.118c-.165-.459.459-1.4.789-1.785l2.532-.061c.355.373,1.014,1.283.867,1.751l1.89,1.032c.312-.373,1.439-.312,1.942-.208l1.318,2.159c-.147.485-.607,1.517-1.084,1.63L202,107.65c.485.087,1,1.092,1.162,1.578l-1.214,2.219c-.5.122-1.621.234-1.951-.122l-1.838,1.118c.165.459-.451,1.4-.789,1.785l-2.523.061c-.355-.373-1.015-1.283-.876-1.751l-1.882-1.032c-.321.373-1.439.312-1.951.217l-1.309-2.159c.147-.494.607-1.525,1.084-1.638l-.052-2.141c-.478-.086-.989-1.092-1.154-1.577Zm6.148,4.482h0a2.245,2.245,0,1,0-1.085-1.339,2.25,2.25,0,0,0,1.085,1.339Z" transform="translate(1138.652 377.704)" fill="#7df381"/>
    </g>
    <path id="Path_11111" data-name="Path 11111" d="M255.591,147.954a.651.651,0,0,0,.443-.155l5.675-4.611a.728.728,0,0,0,.106-1.02.7.7,0,0,0-.993-.077L256.3,145.76V109.511a.709.709,0,1,0-1.419,0V145.76l-4.522-3.669a.733.733,0,0,0-1.035.1.785.785,0,0,0,.149,1l5.675,4.611a.6.6,0,0,0,.443.155Z" transform="translate(618.197 1482.975) rotate(-90)" fill="#fff"/>
    <path id="Path_27245" data-name="Path 27245" d="M255.591,147.954a.651.651,0,0,0,.443-.155l5.675-4.611a.728.728,0,0,0,.106-1.02.7.7,0,0,0-.993-.077L256.3,145.76V109.511a.709.709,0,1,0-1.419,0V145.76l-4.522-3.669a.733.733,0,0,0-1.035.1.785.785,0,0,0,.149,1l5.675,4.611a.6.6,0,0,0,.443.155Z" transform="translate(837.197 1482.975) rotate(-90)" fill="#fff"/>
    <path id="Path_27246" data-name="Path 27246" d="M255.591,147.954a.651.651,0,0,0,.443-.155l5.675-4.611a.728.728,0,0,0,.106-1.02.7.7,0,0,0-.993-.077L256.3,145.76V109.511a.709.709,0,1,0-1.419,0V145.76l-4.522-3.669a.733.733,0,0,0-1.035.1.785.785,0,0,0,.149,1l5.675,4.611a.6.6,0,0,0,.443.155Z" transform="translate(1031.197 1482.975) rotate(-90)" fill="#fff"/>
  </g>
</svg>
