<svg xmlns="http://www.w3.org/2000/svg" width="120" height="91.999" viewBox="0 0 120 91.999">
  <path id="Path_27126" data-name="Path 27126" d="M108.089,114.028h120V97.311a2.775,2.775,0,0,0-2.78-2.78H110.867a2.789,2.789,0,0,0-2.775,2.775v16.717Zm29.217-6.967a2.78,2.78,0,1,1,0-5.559h13.021a2.78,2.78,0,0,1,0,5.559Zm-22.246,0a2.78,2.78,0,0,1,0-5.559h13.021a2.78,2.78,0,0,1,0,5.559Zm113.022,12.525h-120v64.169a2.789,2.789,0,0,0,2.775,2.775H225.3a2.775,2.775,0,0,0,2.78-2.776V119.585Z" transform="translate(-108.085 -94.531)" fill="#9dccff"/>
</svg>
