<svg xmlns="http://www.w3.org/2000/svg" width="70" height="71" viewBox="0 0 70 71">
  <g id="Group_29748" data-name="Group 29748" transform="translate(-1192.241 -3751.341)">
    <path id="Path_27142" data-name="Path 27142" d="M297.132,24.265l7.011,4.059.07.055a.8.8,0,0,0,.779,0l.07-.055,7.011-4.059h0a.778.778,0,0,0,.389-.678V15.415a.779.779,0,0,0-.389-.67.515.515,0,0,0-.148-.063l-7.011-4.043a.778.778,0,0,0-.779,0l-7,4.09a.78.78,0,0,0-.39.678v8.18a.778.778,0,0,0,.39.678Zm13.828-1.114-5.546,3.186V19.965l5.546-3.2Zm-6.326-10.907,5.562,3.21-.9.514-4.666,2.649-5.554-3.21ZM298.3,16.763l5.554,3.2v6.372L298.3,23.151Z" transform="translate(922.612 3740.806)" fill="#fff"/>
    <path id="Path_27143" data-name="Path 27143" d="M311.976,414.259a.542.542,0,0,0-.155-.062l-7.011-4.035h0a.782.782,0,0,0-.779,0l-7.073,4.082h0a.779.779,0,0,0-.39.678v8.188a.778.778,0,0,0,.39.67l7.011,4.059.07.055a.75.75,0,0,0,.779,0l.07-.055,7.011-4.059h0a.78.78,0,0,0,.39-.67v-8.172A.781.781,0,0,0,311.976,414.259Zm-8.273,11.6-5.539-3.2v-6.372l5.539,3.2Zm.779-7.728-5.562-3.21,5.562-3.186,5.562,3.21Zm6.318,4.526-5.539,3.2v-6.372l5.539-3.2Z" transform="translate(922.764 3394.339)" fill="#fff"/>
    <path id="Path_27144" data-name="Path 27144" d="M93.2,132.3l7.011,4.059a.5.5,0,0,0,.07.055.8.8,0,0,0,.779,0,.508.508,0,0,0,.07-.055l7.011-4.059a.777.777,0,0,0,.389-.678v-8.172a.779.779,0,0,0-.389-.67.651.651,0,0,0-.156-.063l-7.011-4.035a.778.778,0,0,0-.779,0l-7,4.082a.778.778,0,0,0-.39.678v8.18a.779.779,0,0,0,.39.678Zm13.836-1.122-5.547,3.194v-6.373l5.547-3.194Zm-6.364-10.922,5.562,3.21-5.524,3.186-5.562-3.21Zm-6.3,4.55,5.523,3.194v6.372l-5.523-3.194Z" transform="translate(1099.433 3647.115)" fill="#fff"/>
    <path id="Path_27145" data-name="Path 27145" d="M108.59,312.622V304.45a.779.779,0,0,0-.39-.67l-.156-.07-7.011-4.028h0a.779.779,0,0,0-.779,0L93.2,303.764a.779.779,0,0,0-.39.678v8.18a.779.779,0,0,0,.39.678l7.011,4.059a.5.5,0,0,0,.07.055.8.8,0,0,0,.779,0,.509.509,0,0,0,.07-.055l7.011-4.059a.778.778,0,0,0,.452-.678Zm-8.7,2.75-5.547-3.194v-6.372L99.887,309Zm.779-7.72-5.523-3.209,5.524-3.186,5.562,3.21Zm6.326,4.526-5.547,3.194V309l5.547-3.194Z" transform="translate(1099.436 3490.147)" fill="#fff"/>
    <path id="Path_27146" data-name="Path 27146" d="M516.248,123.432a.778.778,0,0,0-.39-.678l-7.081-4.082a.779.779,0,0,0-.779,0l-7.011,4.035a.543.543,0,0,0-.155.063.778.778,0,0,0-.39.67v8.172a.779.779,0,0,0,.39.678l7.011,4.059.062.055a.8.8,0,0,0,.779,0l.07-.055,7.011-4.059a.779.779,0,0,0,.39-.678V123.44Zm-8.687,10.907-5.539-3.194v-6.349l5.539,3.194Zm.779-7.72-5.515-3.163,5.57-3.21,5.523,3.186Zm6.349,4.526-5.516,3.217v-6.372l5.547-3.194Z" transform="translate(745.994 3647.12)" fill="#fff"/>
    <path id="Path_27147" data-name="Path 27147" d="M515.856,303.768l-7.081-4.082a.779.779,0,0,0-.779,0l-7.011,4.028h0a.948.948,0,0,0-.155.07.778.778,0,0,0-.39.67v8.172a.779.779,0,0,0,.39.678l7.011,4.059.062.055a.8.8,0,0,0,.779,0l.07-.055,7.011-4.059a.779.779,0,0,0,.39-.678v-8.172a.779.779,0,0,0-.3-.686Zm-8.3,11.607-5.539-3.194v-6.372L507.56,309Zm.779-7.72-5.516-3.186,5.57-3.209,5.523,3.186Zm6.349,4.526-5.516,3.194V309l5.547-3.194Z" transform="translate(745.994 3490.144)" fill="#fff"/>
    <path id="Path_27148" data-name="Path 27148" d="M466.712,104.03a.367.367,0,0,0,.2.054.389.389,0,1,0-.2-.054Z" transform="translate(775.452 3660.425)" fill="#fff"/>
    <path id="Path_27149" data-name="Path 27149" d="M436.2,86.533a.335.335,0,0,0,.195.054.389.389,0,1,0-.343-.584.382.382,0,0,0,.148.53Z" transform="translate(801.915 3675.585)" fill="#fff"/>
    <path id="Path_27150" data-name="Path 27150" d="M507.143,127.37a.351.351,0,0,0,.195.055.39.39,0,1,0-.195-.055Z" transform="translate(740.402 3640.136)" fill="#fff"/>
    <path id="Path_27151" data-name="Path 27151" d="M486.979,115.7a.362.362,0,0,0,.195.055.389.389,0,1,0-.335-.553.4.4,0,0,0,.14.5Z" transform="translate(757.871 3650.249)" fill="#fff"/>
    <path id="Path_27152" data-name="Path 27152" d="M456.374,98.071a.347.347,0,0,0,.195.055.464.464,0,1,0-.195-.055Z" transform="translate(784.448 3665.605)" fill="#fff"/>
    <path id="Path_27153" data-name="Path 27153" d="M496.8,121.4a.334.334,0,0,0,.195.054.462.462,0,1,0-.195-.054Z" transform="translate(749.399 3645.33)" fill="#fff"/>
    <path id="Path_27154" data-name="Path 27154" d="M477.291,110a.372.372,0,0,0,.2.055.406.406,0,0,0,.343-.2.4.4,0,0,0-.148-.53.39.39,0,0,0-.39.67Z" transform="translate(766.255 3655.236)" fill="#fff"/>
    <path id="Path_27155" data-name="Path 27155" d="M426.252,80.681a.364.364,0,0,0,.2.055.374.374,0,0,0,.335-.195.39.39,0,1,0-.53.14Z" transform="translate(810.532 3680.658)" fill="#fff"/>
    <path id="Path_27156" data-name="Path 27156" d="M446.284,92.236a.354.354,0,0,0,.2.055.462.462,0,1,0-.2-.055Z" transform="translate(793.195 3670.662)" fill="#fff"/>
    <path id="Path_27157" data-name="Path 27157" d="M517.224,133.2a.35.35,0,0,0,.2.055.39.39,0,1,0-.2-.055Z" transform="translate(731.617 3635.081)" fill="#fff"/>
    <path id="Path_27158" data-name="Path 27158" d="M416.193,74.866a.371.371,0,0,0,.195.055.39.39,0,1,0-.195-.055Z" transform="translate(819.249 3685.694)" fill="#fff"/>
    <path id="Path_27159" data-name="Path 27159" d="M557.125,268.466a.389.389,0,0,0,.39-.4.382.382,0,0,0-.39-.382.389.389,0,0,0-.389.382A.4.4,0,0,0,557.125,268.466Z" transform="translate(697.216 3517.85)" fill="#fff"/>
    <path id="Path_27160" data-name="Path 27160" d="M557.125,256.743a.382.382,0,0,0,.39-.382.389.389,0,0,0-.39-.4.4.4,0,0,0-.389.4A.389.389,0,0,0,557.125,256.743Z" transform="translate(697.216 3528.014)" fill="#fff"/>
    <path id="Path_27161" data-name="Path 27161" d="M557.125,291.743a.39.39,0,1,0-.389-.39A.389.389,0,0,0,557.125,291.743Z" transform="translate(697.216 3497.668)" fill="#fff"/>
    <path id="Path_27162" data-name="Path 27162" d="M557.582,280.137a.4.4,0,1,0-.319-.39A.4.4,0,0,0,557.582,280.137Z" transform="translate(696.76 3507.731)" fill="#fff"/>
    <path id="Path_27163" data-name="Path 27163" d="M416.432,472.275a.39.39,0,0,0,.195.725.366.366,0,0,0,.195-.055.389.389,0,0,0-.389-.67Z" transform="translate(819.041 3340.461)" fill="#fff"/>
    <path id="Path_27164" data-name="Path 27164" d="M487.105,431.185a.382.382,0,0,0-.14.529.39.39,0,0,0,.343.195.328.328,0,0,0,.187-.054.39.39,0,1,0-.39-.67Z" transform="translate(757.776 3376.159)" fill="#fff"/>
    <path id="Path_27165" data-name="Path 27165" d="M426.522,466.445a.389.389,0,0,0,.195.724.349.349,0,0,0,.2-.054.389.389,0,0,0-.39-.67Z" transform="translate(810.294 3345.512)" fill="#fff"/>
    <path id="Path_27166" data-name="Path 27166" d="M477.092,437.017a.39.39,0,0,0,.2.725.351.351,0,0,0,.195-.055.389.389,0,1,0-.39-.67Z" transform="translate(766.453 3371.102)" fill="#fff"/>
    <path id="Path_27167" data-name="Path 27167" d="M507.325,419.517a.389.389,0,0,0-.148.53.4.4,0,0,0,.343.2.365.365,0,0,0,.195-.055.389.389,0,1,0-.389-.67Z" transform="translate(740.249 3386.275)" fill="#fff"/>
    <path id="Path_27168" data-name="Path 27168" d="M497.282,425.5a.39.39,0,0,0,.2.725.33.33,0,0,0,.187-.054.386.386,0,0,0-.382-.67Z" transform="translate(748.951 3381.065)" fill="#fff"/>
    <path id="Path_27169" data-name="Path 27169" d="M456.852,448.945a.389.389,0,0,0,.2.724.365.365,0,0,0,.195-.054.389.389,0,0,0-.39-.67Z" transform="translate(784 3360.675)" fill="#fff"/>
    <path id="Path_27170" data-name="Path 27170" d="M466.942,443.106a.39.39,0,0,0,.195.725.368.368,0,0,0,.2-.054.39.39,0,0,0-.39-.67Z" transform="translate(775.253 3365.734)" fill="#fff"/>
    <path id="Path_27171" data-name="Path 27171" d="M446.7,454.664a.381.381,0,0,0-.148.53.389.389,0,0,0,.343.2.368.368,0,0,0,.2-.055.387.387,0,0,0-.39-.67Z" transform="translate(792.812 3355.735)" fill="#fff"/>
    <path id="Path_27172" data-name="Path 27172" d="M436.611,460.348a.389.389,0,0,0,.195.725.351.351,0,0,0,.195-.054.39.39,0,1,0-.389-.67Z" transform="translate(801.549 3350.829)" fill="#fff"/>
    <path id="Path_27173" data-name="Path 27173" d="M517.462,413.945a.389.389,0,0,0,.2.724.347.347,0,0,0,.195-.054.389.389,0,0,0-.39-.67Z" transform="translate(731.41 3391.072)" fill="#fff"/>
    <path id="Path_27174" data-name="Path 27174" d="M229.318,437.017a.389.389,0,1,0-.389.67.326.326,0,0,0,.187.055.39.39,0,0,0,.2-.725Z" transform="translate(981.626 3371.102)" fill="#fff"/>
    <path id="Path_27175" data-name="Path 27175" d="M239.585,442.848a.39.39,0,1,0-.39.67.351.351,0,0,0,.195.054.39.39,0,0,0,.2-.725Z" transform="translate(972.726 3365.992)" fill="#fff"/>
    <path id="Path_27176" data-name="Path 27176" d="M189.068,413.685a.389.389,0,1,0-.389.67.346.346,0,0,0,.195.054.389.389,0,0,0,.195-.724Z" transform="translate(1016.566 3391.332)" fill="#fff"/>
    <path id="Path_27177" data-name="Path 27177" d="M249.676,448.685a.389.389,0,1,0-.39.67.35.35,0,0,0,.2.054.389.389,0,0,0,.195-.724Z" transform="translate(963.978 3360.935)" fill="#fff"/>
    <path id="Path_27178" data-name="Path 27178" d="M219.345,431.185a.39.39,0,0,0-.566.119.389.389,0,0,0,.176.551.367.367,0,0,0,.195.054.4.4,0,0,0,.343-.195.381.381,0,0,0-.148-.53Z" transform="translate(990.272 3376.159)" fill="#fff"/>
    <path id="Path_27179" data-name="Path 27179" d="M209.258,425.348a.39.39,0,1,0-.389.67.365.365,0,0,0,.195.054.39.39,0,0,0,.195-.725Z" transform="translate(999.017 3381.219)" fill="#fff"/>
    <path id="Path_27180" data-name="Path 27180" d="M259.775,454.517a.39.39,0,1,0-.39.67.366.366,0,0,0,.195.055.39.39,0,0,0,.2-.725Z" transform="translate(955.222 3355.882)" fill="#fff"/>
    <path id="Path_27181" data-name="Path 27181" d="M199.166,419.517a.389.389,0,1,0-.39.67.352.352,0,0,0,.195.055.39.39,0,0,0,.2-.725Z" transform="translate(1007.766 3386.275)" fill="#fff"/>
    <path id="Path_27182" data-name="Path 27182" d="M280.009,466.185a.389.389,0,0,0-.566.119.389.389,0,0,0,.176.551.333.333,0,0,0,.195.054.389.389,0,0,0,.195-.724Z" transform="translate(937.681 3345.772)" fill="#fff"/>
    <path id="Path_27183" data-name="Path 27183" d="M270.155,460.348a.39.39,0,1,0-.39.67.368.368,0,0,0,.195.054.39.39,0,0,0,.2-.725Z" transform="translate(946.223 3350.829)" fill="#fff"/>
    <path id="Path_27184" data-name="Path 27184" d="M290.106,472.017a.39.39,0,1,0-.39.67.354.354,0,0,0,.2.055.39.39,0,0,0,.195-.725Z" transform="translate(928.928 3340.719)" fill="#fff"/>
    <path id="Path_27185" data-name="Path 27185" d="M149.767,279.452a.389.389,0,0,1-.779,0,.389.389,0,1,1,.779,0" transform="translate(1050.757 3507.988)" fill="#fff"/>
    <path id="Path_27186" data-name="Path 27186" d="M149.767,256.124a.389.389,0,1,1-.779,0,.389.389,0,0,1,.779,0" transform="translate(1050.757 3528.213)" fill="#fff"/>
    <path id="Path_27187" data-name="Path 27187" d="M149.767,291.124a.389.389,0,1,1-.779,0,.389.389,0,0,1,.779,0" transform="translate(1050.757 3497.867)" fill="#fff"/>
    <path id="Path_27188" data-name="Path 27188" d="M149.767,267.794a.389.389,0,1,1-.779,0,.389.389,0,0,1,.779,0" transform="translate(1050.757 3518.094)" fill="#fff"/>
    <path id="Path_27189" data-name="Path 27189" d="M189.079,133.257a.445.445,0,0,0,.2-.047.4.4,0,0,0,.14-.537.389.389,0,1,0-.343.584Z" transform="translate(1016.352 3635.079)" fill="#fff"/>
    <path id="Path_27190" data-name="Path 27190" d="M199.156,127.441a.43.43,0,0,0,.195-.047.395.395,0,1,0-.195.047Z" transform="translate(1007.572 3640.12)" fill="#fff"/>
    <path id="Path_27191" data-name="Path 27191" d="M259.967,92.535a.453.453,0,0,0,.195-.054.39.39,0,0,0,.14-.53.4.4,0,0,0-.529-.148.4.4,0,0,0-.148.537.4.4,0,0,0,.343.195Z" transform="translate(954.858 3670.432)" fill="#fff"/>
    <path id="Path_27192" data-name="Path 27192" d="M239.478,104.147a.444.444,0,0,0,.2-.046.4.4,0,0,0,.14-.538.39.39,0,1,0-.335.584Z" transform="translate(972.622 3660.371)" fill="#fff"/>
    <path id="Path_27193" data-name="Path 27193" d="M269.734,86.575a.365.365,0,0,0,.195-.054.39.39,0,1,0-.39-.67.383.383,0,0,0-.148.53A.389.389,0,0,0,269.734,86.575Z" transform="translate(946.396 3675.613)" fill="#fff"/>
    <path id="Path_27194" data-name="Path 27194" d="M249.581,98.358a.442.442,0,0,0,.195-.047.39.39,0,1,0-.537-.148.405.405,0,0,0,.343.195Z" transform="translate(963.862 3665.381)" fill="#fff"/>
    <path id="Path_27195" data-name="Path 27195" d="M229.442,110.084a.37.37,0,0,0,.195-.055.381.381,0,1,0-.195.055Z" transform="translate(981.315 3655.214)" fill="#fff"/>
    <path id="Path_27196" data-name="Path 27196" d="M209.238,121.639a.351.351,0,0,0,.195-.054.4.4,0,0,0,.148-.53.405.405,0,0,0-.537-.148.4.4,0,0,0-.14.538.389.389,0,0,0,.335.195Z" transform="translate(998.833 3645.153)" fill="#fff"/>
    <path id="Path_27197" data-name="Path 27197" d="M289.9,75.051a.386.386,0,0,0,.335-.584.4.4,0,0,0-.538-.14.381.381,0,0,0-.14.53.389.389,0,0,0,.343.195Z" transform="translate(928.914 3685.579)" fill="#fff"/>
    <path id="Path_27198" data-name="Path 27198" d="M219.179,115.917a.351.351,0,0,0,.195-.055.382.382,0,1,0-.195.055Z" transform="translate(990.212 3650.099)" fill="#fff"/>
    <path id="Path_27199" data-name="Path 27199" d="M279.849,80.973a.327.327,0,0,0,.187-.055.382.382,0,1,0-.187.055Z" transform="translate(937.622 3680.436)" fill="#fff"/>
    <path id="Path_27200" data-name="Path 27200" d="M213.951,216.4a.391.391,0,0,0-.2.755h.1a.4.4,0,0,0,.381-.288.4.4,0,0,0-.28-.467Z" transform="translate(994.835 3562.33)" fill="#fff"/>
    <path id="Path_27201" data-name="Path 27201" d="M281.515,234.587a.382.382,0,0,0-.483.272.389.389,0,0,0,.28.475h.094a.393.393,0,1,0,.109-.779Z" transform="translate(936.268 3546.575)" fill="#fff"/>
    <path id="Path_27202" data-name="Path 27202" d="M247.5,226.235h.1a.39.39,0,1,0-.374-.507.406.406,0,0,0,.273.507Z" transform="translate(965.583 3554.465)" fill="#fff"/>
    <path id="Path_27203" data-name="Path 27203" d="M258.747,229.182h.109a.4.4,0,1,0-.382-.506.405.405,0,0,0,.273.506Z" transform="translate(955.828 3551.922)" fill="#fff"/>
    <path id="Path_27204" data-name="Path 27204" d="M224.98,220.12h.1a.406.406,0,0,0,.382-.288.39.39,0,0,0-.281-.475.382.382,0,0,0-.475.273.39.39,0,0,0,.273.491Z" transform="translate(985.103 3559.767)" fill="#fff"/>
    <path id="Path_27205" data-name="Path 27205" d="M236.24,223.151a.254.254,0,0,0,.1,0,.4.4,0,0,0,.382-.288.39.39,0,0,0-.281-.475.381.381,0,0,0-.475.272.389.389,0,0,0,.273.491Z" transform="translate(975.34 3557.138)" fill="#fff"/>
    <path id="Path_27206" data-name="Path 27206" d="M270.247,231.618a.4.4,0,0,0-.483.281.389.389,0,0,0,.28.475h.1a.389.389,0,0,0,.374-.288A.405.405,0,0,0,270.247,231.618Z" transform="translate(946.037 3549.134)" fill="#fff"/>
    <path id="Path_27207" data-name="Path 27207" d="M353.305,171.15a.39.39,0,0,0,0,.779.39.39,0,0,0,0-.779Z" transform="translate(873.94 3601.55)" fill="#fff"/>
    <path id="Path_27208" data-name="Path 27208" d="M353.305,194.48a.389.389,0,1,0,.39.389A.389.389,0,0,0,353.305,194.48Z" transform="translate(873.94 3581.322)" fill="#fff"/>
    <path id="Path_27209" data-name="Path 27209" d="M353.254,147.82a.4.4,0,0,0-.4.39.389.389,0,1,0,.389-.39Z" transform="translate(873.991 3621.777)" fill="#fff"/>
    <path id="Path_27210" data-name="Path 27210" d="M353.305,182.82a.389.389,0,1,0,.39.39A.389.389,0,0,0,353.305,182.82Z" transform="translate(873.94 3591.431)" fill="#fff"/>
    <path id="Path_27211" data-name="Path 27211" d="M353.305,159.48a.389.389,0,1,0,.39.389A.389.389,0,0,0,353.305,159.48Z" transform="translate(873.94 3611.667)" fill="#fff"/>
    <path id="Path_27212" data-name="Path 27212" d="M353.305,379.234a.382.382,0,0,0,.39-.382.39.39,0,1,0-.39.382Z" transform="translate(873.94 3421.805)" fill="#fff"/>
    <path id="Path_27213" data-name="Path 27213" d="M353.305,390.853a.389.389,0,1,0-.275-.114A.389.389,0,0,0,353.305,390.853Z" transform="translate(873.94 3411.739)" fill="#fff"/>
    <path id="Path_27214" data-name="Path 27214" d="M353.3,402.517a.382.382,0,0,0,.39-.382.39.39,0,1,0-.39.382Z" transform="translate(873.94 3401.625)" fill="#fff"/>
    <path id="Path_27215" data-name="Path 27215" d="M353.3,355.853a.39.39,0,1,0,0-.779.39.39,0,1,0,0,.779Z" transform="translate(873.942 3442.084)" fill="#fff"/>
    <path id="Path_27216" data-name="Path 27216" d="M353.305,367.568a.382.382,0,0,0,.39-.382.39.39,0,1,0-.39.382Z" transform="translate(873.94 3431.92)" fill="#fff"/>
    <path id="Path_27217" data-name="Path 27217" d="M353.305,344.187a.389.389,0,1,0-.389-.39A.389.389,0,0,0,353.305,344.187Z" transform="translate(873.94 3452.199)" fill="#fff"/>
    <path id="Path_27218" data-name="Path 27218" d="M211.269,330.339a.382.382,0,0,0-.242.491.373.373,0,0,0,.366.265h.124a.405.405,0,0,0,.249-.5A.4.4,0,0,0,211.269,330.339Z" transform="translate(996.965 3463.546)" fill="#fff"/>
    <path id="Path_27219" data-name="Path 27219" d="M267.131,312.253a.39.39,0,0,0-.491-.242.382.382,0,0,0-.249.491.39.39,0,0,0,.374.265h.117a.405.405,0,0,0,.249-.514Z" transform="translate(948.969 3479.437)" fill="#fff"/>
    <path id="Path_27220" data-name="Path 27220" d="M277.545,309.053a.39.39,0,1,0-.242-.74.394.394,0,0,0,.117.779A.321.321,0,0,0,277.545,309.053Z" transform="translate(939.781 3482.647)" fill="#fff"/>
    <path id="Path_27221" data-name="Path 27221" d="M288.734,305.525a.333.333,0,0,0,.125,0,.4.4,0,0,0,.249-.491.389.389,0,0,0-.49-.249.394.394,0,1,0,.117.779Z" transform="translate(929.974 3485.702)" fill="#fff"/>
    <path id="Path_27222" data-name="Path 27222" d="M221.905,326.548a.394.394,0,1,0,.125.779.357.357,0,0,0,.125,0,.39.39,0,0,0,.242-.5.382.382,0,0,0-.491-.28Z" transform="translate(987.805 3466.833)" fill="#fff"/>
    <path id="Path_27223" data-name="Path 27223" d="M256.063,315.89a.4.4,0,0,0-.491-.249.405.405,0,0,0-.249.5.39.39,0,0,0,.374.265.314.314,0,0,0,.117,0,.39.39,0,0,0,.249-.514Z" transform="translate(958.56 3476.289)" fill="#fff"/>
    <path id="Path_27224" data-name="Path 27224" d="M232.985,323.005a.394.394,0,1,0,.125.779h.117a.382.382,0,0,0,.249-.491.389.389,0,0,0-.491-.288Z" transform="translate(978.198 3469.902)" fill="#fff"/>
    <path id="Path_27225" data-name="Path 27225" d="M244.945,319.466a.389.389,0,1,0-.74.242.4.4,0,0,0,.374.272h.117a.382.382,0,0,0,.249-.514Z" transform="translate(968.206 3473.202)" fill="#fff"/>
    <path id="Path_27226" data-name="Path 27226" d="M481.013,219.952a.39.39,0,0,0,.374.289h.1a.39.39,0,0,0,.281-.475.4.4,0,0,0-.779.2Z" transform="translate(762.92 3559.66)" fill="#fff"/>
    <path id="Path_27227" data-name="Path 27227" d="M469.9,223.059a.39.39,0,0,0,.374.288.208.208,0,0,0,.1,0,.39.39,0,1,0-.475-.273Z" transform="translate(772.537 3556.958)" fill="#fff"/>
    <path id="Path_27228" data-name="Path 27228" d="M447.666,228.484a.4.4,0,0,0-.272.483.381.381,0,0,0,.374.28h.1a.4.4,0,1,0-.2-.779Z" transform="translate(792.045 3551.865)" fill="#fff"/>
    <path id="Path_27229" data-name="Path 27229" d="M458.978,225.444a.389.389,0,0,0-.272.475.382.382,0,0,0,.374.288h.1a.4.4,0,0,0-.2-.779Z" transform="translate(782.239 3554.5)" fill="#fff"/>
    <path id="Path_27230" data-name="Path 27230" d="M492.749,217.093a.39.39,0,0,0,.273-.475.4.4,0,0,0-.779.2.39.39,0,0,0,.374.288Z" transform="translate(753.165 3562.389)" fill="#fff"/>
    <path id="Path_27231" data-name="Path 27231" d="M436.508,232.495h.1a.382.382,0,0,0,.273-.475.39.39,0,0,0-.475-.281.4.4,0,0,0-.273.483A.39.39,0,0,0,436.508,232.495Z" transform="translate(801.808 3549.029)" fill="#fff"/>
    <path id="Path_27232" data-name="Path 27232" d="M308.815,211.232a.4.4,0,0,0,.273-.483.382.382,0,0,0-.725-.047.719.719,0,0,0-.257-.249.543.543,0,0,0-.155-.062l-7.011-4.035h0a.781.781,0,0,0-.32-.093h-.133a.7.7,0,0,0-.327.093l-7.073,4.082h0a.887.887,0,0,0-.249.234.382.382,0,0,0-.242-.2.4.4,0,0,0-.483.273.39.39,0,0,0,.281.475.236.236,0,0,0,.1,0,.372.372,0,0,0,.2-.07V219.3a.778.778,0,0,0,.39.67l7.011,4.059.07.055a.75.75,0,0,0,.779,0l.07-.055,7.011-4.059h0a.78.78,0,0,0,.39-.67v-8.141a.375.375,0,0,0,.218.078Zm-8.982,10.821-5.539-3.2v-6.372l5.539,3.2Zm.779-7.728-5.562-3.21,5.562-3.186,5.562,3.21Zm6.318,4.526-5.539,3.2V215.68l5.539-3.2Z" transform="translate(926.634 3571.072)" fill="#fff"/>
    <path id="Path_27233" data-name="Path 27233" d="M425.342,235.252a.4.4,0,1,0-.2-.779.382.382,0,0,0-.273.475.389.389,0,0,0,.374.288Z" transform="translate(811.576 3546.658)" fill="#fff"/>
    <path id="Path_27234" data-name="Path 27234" d="M484.311,327.03a.408.408,0,0,0-.779-.242.4.4,0,0,0,.249.491h.125A.382.382,0,0,0,484.311,327.03Z" transform="translate(760.72 3466.857)" fill="#fff"/>
    <path id="Path_27235" data-name="Path 27235" d="M473.418,323.36a.381.381,0,0,0-.249-.491.389.389,0,0,0-.49.249.4.4,0,0,0,.249.491.355.355,0,0,0,.124,0A.39.39,0,0,0,473.418,323.36Z" transform="translate(770.13 3470.023)" fill="#fff"/>
    <path id="Path_27236" data-name="Path 27236" d="M429.029,308.21a.39.39,0,0,0-.242.74.294.294,0,0,0,.117,0,.394.394,0,0,0,.125-.779Z" transform="translate(808.386 3482.75)" fill="#fff"/>
    <path id="Path_27237" data-name="Path 27237" d="M462.152,319.176a.405.405,0,0,0-.5.249.4.4,0,0,0,.249.491.356.356,0,0,0,.125,0,.395.395,0,0,0,.125-.779Z" transform="translate(779.687 3473.242)" fill="#fff"/>
    <path id="Path_27238" data-name="Path 27238" d="M495.643,330.815a.382.382,0,0,0-.249-.491.39.39,0,0,0-.491.242.405.405,0,0,0,.249.5h.125A.381.381,0,0,0,495.643,330.815Z" transform="translate(750.862 3463.56)" fill="#fff"/>
    <path id="Path_27239" data-name="Path 27239" d="M417.74,304.67a.408.408,0,1,0-.242.779.312.312,0,0,0,.125,0,.394.394,0,0,0,.117-.779Z" transform="translate(818.201 3485.801)" fill="#fff"/>
    <path id="Path_27240" data-name="Path 27240" d="M440.008,311.89a.381.381,0,0,0-.49.242.389.389,0,0,0,.249.5h.117a.394.394,0,1,0,.125-.779Z" transform="translate(798.88 3479.559)" fill="#fff"/>
    <path id="Path_27241" data-name="Path 27241" d="M451.093,315.636a.39.39,0,0,0-.491.249.382.382,0,0,0,.241.491h.125a.39.39,0,0,0,.374-.265A.406.406,0,0,0,451.093,315.636Z" transform="translate(789.273 3476.294)" fill="#fff"/>
  </g>
</svg>
